<svg width="500" height="500" viewBox="0 0 500 500" fill="none" xmlns="http://www.w3.org/2000/svg">
<path d="M102.068 438.31L70.6367 500H0L58.3232 382.374L102.068 438.31Z" fill="#49657A"/>
<path d="M500 500H429.363L332.949 316.374L376.962 255.952L500 500Z" fill="#B4E3DF"/>
<path d="M138.291 367.733L121.672 400.068L77.5342 343.631L93.3164 311.803L138.291 367.733Z" fill="#49657A"/>
<path d="M321.209 145.364L276.129 208.154L247.923 154.435L157.806 329.766L112.405 273.306L247.923 0L321.209 145.364Z" fill="#49657A"/>
<path d="M357.227 216.806L312.738 277.881L296.409 246.779L341.015 184.65L357.227 216.806Z" fill="#49657A"/>
<path d="M0 276.144L175.07 500L500 53.9216L449.58 0L175.07 382.353L47.619 223.856L0 276.144Z" fill="#B4E3DF"/>
</svg>
